<svg width="172" height="44" viewBox="0 0 172 44" fill="none" xmlns="http://www.w3.org/2000/svg">
<path d="M51.1636 42.9844C49.4157 42.9844 47.6678 43.001 45.9199 42.976C44.0139 42.9511 42.5656 42.0854 41.6168 40.4458C39.2197 36.3257 36.8392 32.1974 34.4587 28.069C33.693 26.7456 32.9439 25.4222 32.1782 24.1072C31.4374 22.8337 29.9642 22.842 29.2317 24.1155C28.0165 26.213 26.8096 28.3187 25.5944 30.4162C25.1783 31.1403 24.4958 31.132 24.0796 30.4245C23.7966 29.9501 23.5303 29.459 23.2473 28.9846C22.9976 28.5684 22.9893 28.1523 23.2306 27.7278C24.3043 25.8717 25.3531 23.9906 26.4601 22.1512C28.3328 19.0383 32.9106 18.9467 34.8583 22.0097C36.0235 23.8491 37.0556 25.7635 38.146 27.6446C40.285 31.3401 42.4158 35.0356 44.5549 38.7312C44.8878 39.3138 45.3955 39.5968 46.0614 39.5885C49.4989 39.5885 52.9447 39.5968 56.3823 39.5885C57.6807 39.5885 58.4298 38.3233 57.7806 37.183C56.2741 34.5196 54.7343 31.8728 53.2028 29.2177C52.2289 27.528 51.2385 25.8384 50.273 24.1405C49.94 23.5495 49.4823 23.175 48.7914 23.1666C48.084 23.1583 47.6178 23.5329 47.2683 24.1405C46.128 26.138 44.9794 28.1273 43.8308 30.1249C43.7392 30.283 43.656 30.4412 43.5561 30.591C43.2315 31.0571 42.5739 31.0821 42.266 30.5993C41.8914 30.0167 41.5169 29.4257 41.2422 28.7932C41.1257 28.5185 41.134 28.069 41.2755 27.811C42.3908 25.8134 43.4729 23.7909 44.7213 21.8849C46.6024 18.9967 50.9971 19.0799 52.9198 22.0347C54.0684 23.7992 55.0505 25.6636 56.1076 27.4864C57.6474 30.1499 59.1955 32.805 60.7187 35.4851C62.6663 38.8976 60.2776 42.976 56.3406 42.9927C54.6011 42.9844 52.8865 42.9844 51.1636 42.9844Z" fill="#22409A"/>
<path d="M10.2307 42.9824C8.48284 42.9824 6.73496 42.9824 4.98707 42.9824C2.21542 42.9741 -0.0651642 40.6352 0.00142207 37.8719C0.0263919 37.0146 0.276091 36.2072 0.700578 35.4665C2.9978 31.4796 5.29503 27.4928 7.6089 23.5142C8.04171 22.7735 8.44955 21.9994 9.01553 21.3668C11.2212 18.9031 15.283 19.3609 16.9393 22.2241C20.1105 27.7092 23.2733 33.1942 26.4362 38.6793C26.7941 39.3035 27.3018 39.6115 28.0259 39.6115C29.8154 39.6031 31.6049 39.6031 33.3944 39.6115C34.1019 39.6115 34.6096 39.2952 34.9509 38.6876C35.2505 38.1549 35.5501 37.6222 35.8664 37.1062C36.2493 36.4819 36.8985 36.4902 37.2897 37.1145C37.5977 37.6222 37.8973 38.1382 38.1886 38.6626C38.3884 39.0205 38.4134 39.4034 38.2302 39.7779C37.1898 41.8837 35.5751 43.049 33.153 42.999C31.3885 42.9657 29.6323 43.0074 27.8678 42.9907C25.9451 42.9657 24.4968 42.0918 23.5397 40.4438C20.51 35.2334 17.5053 30.0064 14.4839 24.7877C14.3341 24.5214 14.1926 24.255 14.0345 23.9887C13.352 22.89 11.8871 22.8983 11.2379 24.0136C10.1225 25.928 9.01554 27.8507 7.90854 29.7733C6.51855 32.1871 5.12856 34.6008 3.73025 37.0063C3.389 37.5889 3.25582 38.1549 3.59708 38.7708C3.94666 39.3951 4.49599 39.6198 5.19515 39.6115C8.54943 39.6031 11.912 39.6031 15.2663 39.6115C16.0404 39.6115 16.5897 39.2869 16.9476 38.6043C17.2056 38.1133 17.4886 37.6388 17.7716 37.1561C18.1878 36.4569 18.862 36.4569 19.2698 37.1478C19.5445 37.6139 19.8108 38.0883 20.0772 38.5544C20.3019 38.9373 20.3768 39.3368 20.1854 39.7446C19.4696 41.2595 18.4042 42.3831 16.7395 42.8159C16.34 42.9241 15.9239 42.9741 15.5077 42.9824C13.7515 42.9907 11.9953 42.9824 10.2307 42.9824Z" fill="#22409A"/>
<path d="M19.123 16.7577C19.1813 13.5699 19.9304 10.9314 21.928 8.7507C21.9696 8.70909 21.9946 8.65915 22.0445 8.62585C22.1694 8.55094 22.3025 8.49268 22.4274 8.42609C22.4773 8.55094 22.5606 8.66747 22.5772 8.79232C22.6688 9.57471 22.9934 10.2572 23.4844 10.8565C23.576 10.973 23.7341 11.0396 23.8673 11.1312C23.9505 10.998 24.0671 10.8731 24.1004 10.7316C24.9161 7.71029 26.3477 5.01355 28.3869 2.64974C29.2358 1.66759 30.2013 0.826939 31.3167 0.152754C31.5497 0.011258 31.7411 -0.0553283 31.841 0.302573C32.5152 2.79123 33.9551 4.78882 35.8861 6.4618C37.1013 7.51886 38.3415 8.5343 39.4984 9.64962C43.427 13.4117 43.0192 19.5543 39.3236 23.125C38.9657 23.4663 38.7743 23.4246 38.4996 22.9502C36.3189 19.1964 34.1466 15.4509 31.9659 11.6971C31.5331 10.948 30.8256 10.6484 30.1098 10.9813C29.8018 11.1228 29.5105 11.3975 29.3357 11.6888C27.1633 15.426 25.0076 19.1714 22.8519 22.9169C22.5106 23.5079 22.3358 23.5412 21.7865 23.1084C20.3216 21.9514 19.6224 20.37 19.3228 18.5805C19.198 17.9063 19.1647 17.1822 19.123 16.7577Z" fill="#22409A"/>
<path d="M123.312 32.1619C123.312 35.6617 123.312 39.1616 123.312 42.6979C122.602 42.6979 121.945 42.6979 121.262 42.6979C121.262 37.6668 121.262 32.6449 121.262 27.5775C121.59 27.5775 121.891 27.5775 122.191 27.5775C123.394 27.5775 124.588 27.5866 125.791 27.5684C126.138 27.5684 126.329 27.6777 126.502 27.9876C128.061 30.8403 129.638 33.6748 131.205 36.5185C131.278 36.6461 131.36 36.7737 131.488 37.0015C131.789 36.4547 132.062 35.9807 132.326 35.4977C133.703 32.9639 135.079 30.4302 136.464 27.9056C136.546 27.7598 136.747 27.5957 136.902 27.5957C138.287 27.5684 139.663 27.5866 141.049 27.5866C141.103 27.5866 141.167 27.6139 141.24 27.6413C141.24 32.6541 141.24 37.6668 141.24 42.7434C140.985 42.7434 140.748 42.7434 140.52 42.7434C139.317 42.7434 138.123 42.7252 136.92 42.7525C136.528 42.7617 136.437 42.6341 136.446 42.2604C136.464 39.1342 136.455 35.999 136.455 32.8728C136.455 32.727 136.446 32.5811 136.428 32.3259C136.3 32.4809 136.227 32.5447 136.182 32.6267C134.459 35.8349 132.727 39.0431 131.014 42.2604C130.813 42.6341 130.595 42.7981 130.175 42.7617C129.738 42.7252 129.3 42.7525 128.854 42.7525C127.049 39.2071 125.245 35.68 123.449 32.1437C123.394 32.1345 123.349 32.1528 123.312 32.1619Z" fill="#22409A"/>
<path d="M105.857 9.17773C106.131 9.17773 106.386 9.17773 106.641 9.17773C109.385 9.19596 112.137 9.15951 114.88 9.24153C116.439 9.28711 117.943 9.6699 119.228 10.6542C120.467 11.6021 120.859 13.2427 120.139 14.5642C119.656 15.4483 118.836 15.9313 117.925 16.2868C117.751 16.3597 117.569 16.4144 117.359 16.4873C117.97 16.7698 118.563 16.9703 119.073 17.2893C121.434 18.7749 121.279 22.056 118.8 23.3411C117.788 23.8698 116.694 24.1796 115.573 24.207C112.392 24.2799 109.202 24.289 106.012 24.3164C105.967 24.3164 105.93 24.2981 105.857 24.2708C105.857 19.258 105.857 14.2361 105.857 9.17773ZM110.651 22.5209C111.827 22.4662 112.994 22.4844 114.142 22.3295C115.209 22.1928 115.801 21.336 115.847 20.1694C115.892 19.0028 115.327 18.0914 114.324 17.7906C113.121 17.4352 111.891 17.6266 110.651 17.5992C110.651 19.2489 110.651 20.8347 110.651 22.5209ZM110.651 15.7673C111.399 15.7673 112.101 15.7855 112.793 15.7582C113.213 15.7399 113.65 15.7035 114.051 15.585C115.108 15.2842 115.591 14.5369 115.582 13.3429C115.573 12.2765 115.008 11.4927 114.015 11.2011C112.912 10.8821 111.791 11.0553 110.651 11.0097C110.651 12.6138 110.651 14.1632 110.651 15.7673Z" fill="#22409A"/>
<path d="M83.7104 17.8632C84.0659 17.9908 84.2846 18.0728 84.5034 18.1549C85.5697 18.5376 86.2989 19.2577 86.6999 20.3149C87.1738 21.5818 87.6386 22.8486 88.1035 24.1155C88.1217 24.1702 88.1217 24.234 88.1399 24.3251C86.4811 24.3251 84.8406 24.3343 83.2092 24.3069C83.0907 24.3069 82.9266 24.0791 82.8719 23.9241C82.4983 22.8304 82.1428 21.7367 81.7782 20.643C81.6598 20.2967 81.5139 19.9686 81.4137 19.6131C81.1038 18.565 80.3473 18.164 79.3174 18.1457C78.9711 18.1366 78.6156 18.164 78.2693 18.1457C77.9138 18.1184 77.7954 18.2369 77.8045 18.6014C77.8227 20.3331 77.8136 22.0648 77.8136 23.7965C77.8136 23.9515 77.8136 24.0973 77.8136 24.2887C76.2186 24.2887 74.651 24.2887 73.0469 24.2887C73.0469 19.2668 73.0469 14.2449 73.0469 9.20475C73.1471 9.19564 73.2292 9.1683 73.3203 9.1683C75.8723 9.1683 78.4242 9.15918 80.9762 9.17741C82.3615 9.18652 83.7287 9.35058 85.032 9.88832C87.4746 10.9 88.4134 13.7345 87.0007 15.8945C86.3809 16.8515 85.433 17.3437 84.3849 17.6718C84.2026 17.7174 84.0203 17.7721 83.7104 17.8632ZM77.8318 16.4596C78.8526 16.3958 79.8278 16.3867 80.7757 16.25C81.842 16.0951 82.4983 15.4115 82.6167 14.336C82.6805 13.7345 82.6167 13.0965 82.4983 12.495C82.3798 11.8843 81.9058 11.4651 81.3408 11.2372C80.2106 10.7815 79.0258 10.9547 77.8318 10.9456C77.8318 12.7866 77.8318 14.5548 77.8318 16.4596Z" fill="#22409A"/>
<path d="M148.3 24.6705C147.316 24.4518 146.077 24.306 144.937 23.8958C142.859 23.1576 141.611 21.5991 141.082 19.4572C140.617 17.5797 140.626 15.6931 141.128 13.8247C141.756 11.5006 143.26 9.97851 145.575 9.31318C147.653 8.71164 149.768 8.6843 151.873 9.21292C154.48 9.86003 156.12 11.5006 156.74 14.1255C157.178 15.9939 157.168 17.8623 156.649 19.7124C155.874 22.4558 153.933 23.8958 151.217 24.3698C150.333 24.5338 149.431 24.5612 148.3 24.6705ZM145.694 16.6774C145.694 16.8779 145.694 17.0693 145.694 17.2698C145.721 18.6096 145.803 19.9403 146.341 21.1889C146.806 22.2735 147.635 22.8477 148.811 22.8842C149.977 22.9206 150.871 22.4558 151.399 21.3803C151.554 21.0704 151.691 20.7423 151.764 20.4051C152.292 17.9716 152.32 15.529 151.755 13.0956C151.618 12.5122 151.335 11.9016 150.953 11.4459C149.649 9.89649 147.061 10.4616 146.286 12.4302C145.739 13.7973 145.685 15.2374 145.694 16.6774Z" fill="#22409A"/>
<path d="M138.958 16.9217C138.831 17.7055 138.758 18.6442 138.53 19.5557C137.946 21.9436 136.406 23.4656 134.064 24.1401C131.913 24.7598 129.744 24.7416 127.593 24.1765C125.077 23.5112 123.51 21.8798 122.908 19.3551C122.48 17.5414 122.489 15.7095 122.972 13.9049C123.601 11.5261 125.123 9.97668 127.502 9.31134C129.698 8.7007 131.904 8.68247 134.1 9.32046C136.725 10.0861 138.202 11.9089 138.694 14.552C138.821 15.2811 138.858 16.0285 138.958 16.9217ZM127.429 16.6938C127.556 18.1976 127.593 19.6924 128.158 21.096C128.942 23.0464 131.548 23.5659 132.833 21.9983C133.18 21.579 133.417 21.0322 133.572 20.5035C134.073 18.7627 134.055 16.9672 133.936 15.1718C133.872 14.1236 133.736 13.0846 133.262 12.1276C132.56 10.7058 130.901 10.159 129.47 10.8608C128.586 11.2982 128.14 12.0729 127.957 12.9661C127.72 14.1965 127.602 15.4452 127.429 16.6938Z" fill="#22409A"/>
<path d="M144.683 27.6077C144.874 27.5986 145.038 27.5804 145.202 27.5804C147.554 27.5804 149.914 27.5621 152.266 27.5804C153.67 27.5895 155.046 27.7991 156.367 28.2913C158.4 29.0477 159.457 30.5789 159.284 32.7025C159.174 34.1426 158.318 35.1269 157.087 35.7922C155.638 36.576 154.052 36.8039 152.43 36.8495C151.61 36.8677 150.789 36.8495 149.969 36.8586C149.805 36.8586 149.641 36.8677 149.45 36.8768C149.45 38.8272 149.45 40.7412 149.45 42.6916C147.846 42.6916 146.278 42.6916 144.674 42.6916C144.683 37.688 144.683 32.6843 144.683 27.6077ZM149.477 35.0631C150.443 35.0175 151.355 35.0266 152.248 34.9173C153.36 34.7806 154.098 34.0059 154.344 32.8666C154.599 31.6726 154.189 30.5151 153.278 29.9318C152.084 29.1753 150.762 29.5035 149.468 29.4214C149.477 31.3263 149.477 33.14 149.477 35.0631Z" fill="#22409A"/>
<path d="M96.4994 32.2103C96.4994 31.8184 96.5268 31.4903 96.4994 31.1804C96.3718 29.7677 95.67 29.0933 94.2574 28.9839C92.7262 28.8654 91.6051 29.5854 91.0856 31.0346C90.7119 32.0736 90.5843 33.1582 90.5661 34.2519C90.5388 35.8286 90.5114 37.4145 90.958 38.9457C91.0583 39.292 91.195 39.6383 91.3591 39.9573C91.9879 41.1239 93.1454 41.5888 94.5581 41.2607C95.7065 40.9964 96.3718 40.1578 96.4539 38.8454C96.4721 38.4991 96.4539 38.1527 96.4539 37.7608C96.7091 37.7426 96.9278 37.7061 97.1557 37.7061C98.4954 37.697 99.8261 37.7061 101.166 37.6788C101.53 37.6697 101.512 37.8975 101.512 38.1254C101.53 39.5381 101.011 40.6956 99.8352 41.525C98.8418 42.2268 97.7207 42.564 96.5359 42.7554C94.6675 43.0653 92.79 43.1108 90.9216 42.728C88.1691 42.163 86.4556 40.5315 85.8723 37.7608C85.4895 35.9107 85.4895 34.0514 85.9452 32.2103C86.5194 29.9044 87.9686 28.3732 90.2562 27.7808C93.0907 27.0517 95.9435 27.079 98.7142 28.118C99.899 28.5555 100.902 29.2847 101.321 30.5515C101.458 30.9708 101.467 31.4447 101.494 31.8913C101.503 31.9916 101.348 32.1921 101.257 32.1921C99.6712 32.2103 98.0853 32.2103 96.4994 32.2103Z" fill="#22409A"/>
<path d="M118.893 42.7356C117.089 42.7356 115.357 42.7447 113.625 42.7174C113.516 42.7174 113.352 42.5169 113.297 42.3711C112.978 41.487 112.677 40.5938 112.395 39.7006C112.294 39.3816 112.13 39.2814 111.802 39.2814C110.007 39.2996 108.22 39.2996 106.425 39.2814C106.097 39.2814 105.942 39.3816 105.833 39.6915C105.468 40.7032 105.067 41.7057 104.675 42.7174C103.982 42.7174 103.308 42.7174 102.561 42.7174C102.898 41.8151 103.226 40.9401 103.563 40.0652C105.103 36.0276 106.653 31.99 108.184 27.9525C108.284 27.6973 108.384 27.5605 108.694 27.5605C110.016 27.5788 111.337 27.5697 112.659 27.5697C112.942 27.5697 113.115 27.6426 113.233 27.9433C115.038 32.6736 116.861 37.4038 118.674 42.1341C118.747 42.3073 118.802 42.4804 118.893 42.7356ZM106.744 37.4312C108.403 37.4312 109.961 37.4312 111.602 37.4312C110.845 35.2256 110.107 33.0746 109.369 30.9146C109.323 30.9237 109.287 30.9237 109.241 30.9328C108.421 33.0746 107.601 35.2164 106.744 37.4312Z" fill="#22409A"/>
<path d="M102.94 11.0181C102.758 11.0181 102.594 11.0181 102.43 11.0181C100.397 11.0181 98.3558 11.0273 96.3233 11.009C95.9405 11.009 95.8403 11.1184 95.8403 11.5012C95.8585 12.8957 95.8494 14.2901 95.8494 15.7575C98.0732 15.7575 100.261 15.7575 102.494 15.7575C102.494 16.4046 102.494 16.9879 102.494 17.6259C100.297 17.6259 98.1006 17.6259 95.8767 17.6259C95.8767 19.2665 95.8767 20.8523 95.8767 22.4838C98.2282 22.4838 100.561 22.4838 102.94 22.4838C102.94 23.1035 102.94 23.6868 102.94 24.2975C98.9938 24.2975 95.0565 24.2975 91.0736 24.2975C91.0645 24.1061 91.0462 23.9329 91.0462 23.7506C91.0462 19.0842 91.0553 14.4268 91.0371 9.76039C91.0371 9.3138 91.1374 9.16797 91.6113 9.16797C95.1932 9.1862 98.7841 9.17708 102.366 9.17708C102.977 9.17708 102.977 9.17708 102.977 9.80596C102.977 10.1432 102.977 10.4713 102.968 10.8085C102.986 10.845 102.968 10.8905 102.94 11.0181Z" fill="#22409A"/>
<path d="M162.339 24.2793C162.339 24.0879 162.339 23.9148 162.339 23.7507C162.339 19.6767 162.33 15.6118 162.348 11.5377C162.348 11.1276 162.257 10.9909 161.828 11C160.388 11.0273 158.948 11.0091 157.426 11.0091C157.426 10.444 157.417 9.90631 157.435 9.36858C157.435 9.29566 157.618 9.18629 157.727 9.17717C157.955 9.14983 158.183 9.16806 158.41 9.16806C162.831 9.16806 167.251 9.16806 171.662 9.16806C171.763 9.16806 171.872 9.17718 172 9.18629C172 9.79694 172 10.3802 172 11.0091C171.307 11.0091 170.651 11.0091 169.985 11.0091C169.192 11.0091 168.409 11.0273 167.616 11C167.242 10.9909 167.133 11.1094 167.133 11.4831C167.142 15.5389 167.142 19.5947 167.142 23.6505C167.142 23.8419 167.142 24.0424 167.142 24.2702C165.538 24.2793 163.97 24.2793 162.339 24.2793Z" fill="#22409A"/>
</svg>
